<svg width="101" height="101" viewBox="0 0 101 101" fill="none" xmlns="http://www.w3.org/2000/svg">
<path d="M0.411133 50.3608C0.411133 22.6713 22.8579 0.224609 50.5473 0.224609H100.683V50.3608C100.683 78.0503 78.2368 100.497 50.5473 100.497C22.8579 100.497 0.411133 78.0502 0.411133 50.3608Z" fill="#39E500"/>
<path d="M49.1694 28.1875C60.9891 28.1875 70.5708 37.7692 70.5708 49.5889C70.5708 51.1191 70.4083 52.6115 70.103 54.0508L66.812 54.5166C67.116 53.4258 67.3224 52.2945 67.4194 51.1318H60.7856C60.6962 53.5074 60.401 55.784 59.9302 57.8936C59.9102 57.9393 59.8893 57.9847 59.8706 58.0312L58.2329 62.1133C58.108 62.4246 58.152 62.7487 58.3071 63.0039C58.1104 63.4615 57.9065 63.9055 57.6899 64.3311C57.3225 65.0531 56.9169 65.7422 56.4771 66.3857C58.1648 65.6505 59.7206 64.6698 61.0981 63.4863H65.4438C61.5186 68.0786 55.6843 70.9902 49.1694 70.9902C37.3498 70.9902 27.7681 61.4085 27.7681 49.5889C27.7681 37.7692 37.3498 28.1875 49.1694 28.1875ZM42.6089 61.1582C42.8552 61.7843 43.1182 62.3769 43.3999 62.9307C44.6806 65.4476 46.17 66.9526 47.6265 67.5723V61.1582H42.6089ZM50.7124 67.5723C52.169 66.9526 53.6592 65.4477 54.9399 62.9307C55.2216 62.377 55.4837 61.7842 55.73 61.1582H50.7124V67.5723ZM34.9712 61.1582C36.806 63.4072 39.1646 65.2109 41.8608 66.3857C41.4212 65.7423 41.0162 65.0529 40.6489 64.3311C40.1528 63.356 39.7083 62.2931 39.3198 61.1582H34.9712ZM30.9194 51.1318C31.127 53.6197 31.8317 55.9657 32.9341 58.0713H38.4487C37.9545 55.9122 37.6461 53.5743 37.5542 51.1318H30.9194ZM40.6421 51.1318C40.7437 53.6282 41.0887 55.9711 41.6226 58.0713H47.6265V51.1318H40.6421ZM50.7124 58.0713H56.7163C57.2502 55.9711 57.5952 53.6282 57.6968 51.1318H50.7124V58.0713ZM32.9341 41.1064C31.8317 43.212 31.127 45.5581 30.9194 48.0459H37.5542C37.6461 45.6035 37.9545 43.2656 38.4487 41.1064H32.9341ZM41.6226 41.1064C41.0886 43.2066 40.7437 45.5495 40.6421 48.0459H47.6265V41.1064H41.6226ZM50.7124 48.0459H57.6968C57.5952 45.5495 57.2502 43.2066 56.7163 41.1064H50.7124V48.0459ZM59.8901 41.1064C60.3844 43.2656 60.6937 45.6034 60.7856 48.0459H67.4194C67.2119 45.5581 66.5071 43.212 65.4048 41.1064H59.8901ZM41.8618 32.79C39.1645 33.965 36.8055 35.7706 34.9702 38.0205H39.3198C39.7084 36.8853 40.1527 35.822 40.6489 34.8467C41.0166 34.1242 41.4217 33.4339 41.8618 32.79ZM47.6265 31.6045C46.1699 32.2241 44.6807 33.7299 43.3999 36.2471C43.118 36.801 42.8553 37.3941 42.6089 38.0205H47.6265V31.6045ZM50.7124 38.0205H55.731C55.4846 37.3941 55.2218 36.801 54.9399 36.2471C53.6591 33.7298 52.1691 32.224 50.7124 31.6045V38.0205ZM56.4761 32.79C56.9164 33.4341 57.3222 34.124 57.6899 34.8467C58.1862 35.8219 58.6305 36.8853 59.019 38.0205H63.3687C61.5332 35.7704 59.1737 33.965 56.4761 32.79Z" fill="white"/>
<path d="M67.419 71.2316L64.2519 70.2416C63.748 70.084 63.5476 69.4783 63.8581 69.0513L64.2015 68.5792C64.3394 68.3896 64.556 68.273 64.7901 68.2623L68.0115 68.1145C68.3025 68.1011 68.5609 67.9256 68.6803 67.6599C69.4421 65.965 70.5118 63.6139 71.6416 61.1815H62.1477C61.5397 61.1815 61.1802 60.5177 61.5205 60.0138C62.0643 59.2085 62.7116 58.2649 63.0272 57.806C63.1498 57.6276 63.3413 57.5099 63.5557 57.4802L74.0811 56.0195C75.0186 54.0792 75.8682 52.3859 76.4713 51.3076C78.8067 47.1323 83.4883 46.5867 81.4241 53.0469C81.0613 53.9426 80.0637 55.8363 78.8156 58.096C80.3759 60.8857 83.576 66.6464 83.894 67.3721C84.1537 67.9646 83.6361 69.5625 82.8482 70.8555C82.5867 71.2847 81.9893 71.2761 81.6882 70.8736L75.9418 63.191C74.648 65.449 73.371 67.6408 72.407 69.2786C72.2631 69.5231 72.2649 69.8263 72.4116 70.0692L74.2855 73.1719C74.4223 73.3984 74.4335 73.6792 74.3152 73.9159L74.022 74.5023C73.8 74.9463 73.2225 75.0682 72.84 74.7517L70.2318 72.5933C68.8151 74.2403 66.8147 73.0548 67.419 71.2316Z" fill="white"/>
<path d="M64.814 72.9529L63.87 72.69C63.65 72.6287 63.4105 72.6712 63.2207 72.7982C44.625 85.2326 20.7854 69.165 20.7854 51.3076C20.7854 27.778 39.449 21.4968 48.7808 21.3532C62.2788 21.3532 70.073 30.427 72.1038 33.1148C73.6233 35.126 75.0479 33.7286 74.5053 32.8535C67.3516 21.1594 54.3749 18.5894 48.7808 18.7661C25.3039 18.7661 17.1333 37.9847 17.1333 51.3076C17.1333 69.6749 33.8124 81.9656 48.7808 81.9656C57.3726 81.9656 64.0513 78.6952 67.2024 76.4575C67.6998 76.1042 67.5474 75.3376 67.029 75.0159C66.1969 74.4995 65.6262 73.8301 65.3205 73.3489C65.2018 73.162 65.0274 73.0123 64.814 72.9529Z" fill="white"/>
</svg>
